   <?xml version="1.0" encoding="UTF-8" standalone="no"?>
<!-- Created with Inkscape (http://www.inkscape.org/) -->

<svg
   version="1.1"
   id="svg1"
   width="2048"
   height="2048"
   viewBox="0 0 2048 2048"
   xmlns="http://www.w3.org/2000/svg"
   xmlns:svg="http://www.w3.org/2000/svg">
  <defs
     id="defs1" />
  <g
     id="g1">
    <g
       id="g2"
       transform="translate(5.0756323,-2.5377943)">
      <path
         style="fill:#000000"
         d="M 1.3630731e-5,1031.6134 V 7.6133828 H 1024 2048 V 1031.6134 v 1024 H 1024 1.3630731e-5 Z M 1063.5,1982.6008 c 167.2911,-7.0136 329.0736,-59.2028 469.5,-151.4552 32.7813,-21.5356 67.9313,-47.6649 67.9774,-50.5322 0,-0.275 -4.3762,-6.6789 -9.7347,-14.231 -32.8378,-46.2803 -65.5976,-107.9207 -94.2761,-177.3889 -13.1669,-31.8942 -22.0992,-56.5115 -49.6669,-136.8801 -14.5267,-42.35 -26.8178,-77.4084 -27.3136,-77.9076 -1.4362,-1.4462 -3.3066,0.7202 -10.5323,12.1995 -45.0546,71.5771 -108.6978,128.768 -184.9538,166.203 -64.9082,31.8641 -143.6463,51.3232 -227,56.1001 -9.9,0.5673 -21.375,1.3405 -25.5,1.7183 l -7.5,0.6867 0.0884,6.106 c 0.0672,4.6417 0.85007,7.7338 3.26459,12.8935 4.09105,8.7423 11.04342,18.4584 16.03946,22.4153 8.81376,6.9806 22.34345,11.0374 36.91235,11.0678 l 8.3048,0.017 -0.3048,4.75 -0.3048,4.75 h -126.99996 -127 l -0.30479,-4.75 -0.30479,-4.75 h 8.80479 c 33.79525,-0.016 67.34451,-16.2685 90.6931,-43.9365 9.28057,-10.9974 9.13887,-11.4028 -4.38831,-12.5546 -11.27648,-0.9602 -36.96575,-4.2475 -50.5,-6.4621 -171.30598,-28.0354 -317.82797,-118.3072 -406.50843,-250.4521 -17.9467,-26.7429 -39.1518,-66.3753 -50.8796,-95.0943 -6.7914,-16.6307 -17.9557,-50.1278 -22.4971,-67.5 -19.3059,-73.8494 -23.4233,-159.0259 -11.5051,-238.00002 15.9864,-105.9304 62.366,-203.70772 134.94963,-284.5 C 510.74437,610.92256 576.40168,562.92543 646.01332,530.63852 715.03201,498.62662 786.48493,480.31004 867,473.98974 c 24.36024,-1.91223 82.89682,-2.17193 105.5,-0.46803 108.0995,8.14884 216.746,35.89575 298,76.10534 17.1538,8.4888 42.7843,22.89614 48.841,27.45434 1.5797,1.18889 4.0261,16.75729 17.2398,109.70874 8.4694,59.57779 15.1926,108.88575 14.9404,109.57325 -0.2733,0.74533 -2.2641,1.25 -4.9308,1.25 -2.4908,0 -4.8217,-0.55384 -5.2607,-1.25 -0.4336,-0.6875 -2.2566,-6.3386 -4.0512,-12.558 -21.71,-75.2403 -67.7339,-137.90489 -134.7174,-183.42668 -70.5722,-47.96072 -153.0769,-76.5171 -239.0611,-82.74341 -18.10303,-1.31089 -65.05295,-1.30335 -83,0.0133 -101.35647,7.43593 -191.10046,44.25169 -267,109.53166 -18.07883,15.54931 -48.6826,47.07059 -63.05262,64.94295 -68.47938,85.16957 -103.92468,177.83511 -113.60111,296.99018 -1.83879,22.64292 -1.55098,81.03462 0.51015,103.50002 8.76018,95.4818 34.87562,173.9222 82.33091,247.2891 31.46674,48.6484 76.62805,97.151 121.31267,130.2882 72.85284,54.0263 154.70038,84.027 256,93.8355 3.025,0.2929 6.06388,0.1799 6.75307,-0.2511 1.1432,-0.7148 32.34313,-75.1451 240.33243,-573.33502 C 1181.4385,900.96977 1212,826.71597 1212,825.43164 c 0,-5.79329 -32.2473,-42.21962 -50,-56.47963 -26.4036,-21.20894 -52.8299,-33.67416 -85.7839,-40.46407 -12.6282,-2.60195 -47.5779,-3.68318 -63.0618,-1.95092 -18.84284,2.10803 -42.2287,7.43577 -61.59189,14.03179 -4.91567,1.67452 -9.08931,3.04457 -9.27475,3.04457 -0.41898,0 -2.07339,-4.2981 -2.85856,-7.42645 -0.53892,-2.14725 0.0934,-2.60119 7.74202,-5.55758 39.69207,-15.3421 80.14428,-25.44606 116.32888,-29.05606 16.0587,-1.60212 45.8744,-1.6295 57,-0.0523 34.1865,4.84623 68.8328,19.22661 104.0819,43.20055 23.107,15.71572 42.0527,35.94168 66.4026,70.89002 26.018,37.34231 40.5049,65.76113 65.5059,128.50186 14.6883,36.86081 22.3587,57.95298 63.55,174.74998 33.9332,96.2171 33.1724,94.4683 36.3282,83.5 14.817,-51.4971 23.5077,-111.6481 25.4649,-176.25 l 0.6665,-22 5.3928,-0.3072 c 2.966,-0.169 5.8203,0.1203 6.3428,0.6428 2.1574,2.1574 3.0051,32.3707 1.8283,65.1644 -2.3282,64.8797 -9.3599,116.1883 -23.1052,168.5929 -2.1773,8.301 -3.9587,16.0979 -3.9587,17.3262 0,2.0224 64.6519,186.5035 80.9829,231.0809 33.175,90.555 68.0633,165.4822 103.719,222.75 6.062,9.7365 10.0954,15.25 11.1561,15.25 3.2349,0 49.5422,-48.0972 70.2833,-73 105.6785,-126.8829 174.3769,-273.2135 203.2823,-433 16.2047,-89.5783 18.8969,-190.0967 7.5262,-280.99998 C 1925.7722,776.30304 1864.7794,625.43175 1767.1269,495.27893 1694.7966,398.87589 1602.5555,315.69933 1500,254.40265 1379.8841,182.61021 1249.0068,139.79577 1109.5,126.6567 1048.5526,120.91653 980.81452,121.61927 917,128.65378 747.48693,147.3398 584.36919,214.22746 449,320.56069 c -31.69129,24.8937 -49.87359,40.92997 -79.35909,69.99271 -74.9168,73.84255 -133.1777,154.14513 -180.4854,248.76822 -87.7295,175.47299 -116.999496,375.74308 -83.6144,572.10368 27.6954,162.8959 100.6219,318.5046 208.4047,444.6881 37.0776,43.4076 83.2886,88.3694 126.55419,123.133 91.6512,73.6411 200.87979,131.1701 313,164.8523 101.67478,30.5442 202.15197,43.0235 310,38.5021 z m 746.587,-976.1484 c -6.2747,-4.3002 -9.2323,-13.71572 -7.6413,-24.3256 0.8015,-5.34484 5.0265,-10.78517 9.6191,-12.38617 2.7486,-0.95817 3.0984,-0.82828 3.9745,1.47616 1.4076,3.70227 1.2241,4.34596 -1.5388,5.39642 -5.5517,2.11075 -8.509,13.47095 -5.2065,20.00017 1.5878,3.13907 6.1036,5.36802 9.2671,4.57402 3.3782,-0.8479 5.1791,-4.0484 7.7994,-13.86115 2.7447,-10.27827 4.6601,-13.40571 9.4315,-15.39933 7.3205,-3.05871 15.4144,0.28749 19.4006,8.02067 2.9547,5.73201 2.9848,15.02707 0.064,19.74437 -2.2929,3.70324 -7.6473,7.41604 -9.2587,6.42014 -1.7325,-1.0707 -1.0828,-5.1131 1.1401,-7.09373 7.6835,-6.846 4.603,-20.40499 -4.6357,-20.40499 -4.6054,0 -7.9988,3.28548 -9.4351,9.13505 -4.2028,17.11567 -6.1596,19.96597 -14.1478,20.60767 -4.487,0.3605 -6.0066,0.033 -8.8324,-1.9037 z m -19.4728,-118.08902 c -1.5219,-8.3875 -2.8451,-15.88081 -2.9406,-16.6518 -0.1313,-1.06057 5.9118,-2.57333 24.8264,-6.21467 13.75,-2.64709 25.7085,-4.82878 26.5745,-4.84821 1.2457,-0.0279 2.1629,3.14905 4.3924,15.21468 1.5499,8.3875 3.0057,15.75698 3.2352,16.37662 0.4106,1.10879 -4.4898,2.91906 -5.4102,1.99861 -0.2597,-0.25966 -1.3199,-4.89406 -2.356,-10.29867 -2.8784,-15.01379 -2.5951,-14.32656 -5.9057,-14.32656 -4.8493,0 -13.1343,2.10763 -13.6589,3.47469 -0.27,0.70369 0.4469,6.13897 1.5931,12.07841 2.1752,11.27205 1.986,12.39331 -2.0982,12.43159 -1.2921,0.0121 -2.0707,-2.32159 -3.7226,-11.15733 -1.1489,-6.14494 -2.536,-11.61973 -3.0824,-12.16619 -1.0691,-1.06908 -13.4386,0.718 -16.0224,2.31482 -1.2079,0.74653 -1.0934,2.62179 0.7752,12.69993 1.2057,6.50325 2.1908,12.38658 2.1891,13.07408 0,0.70264 -1.2333,1.25 -2.8125,1.25 h -2.8095 z m -23.4622,-92.74381 c -0.8667,-2.48629 -0.7562,-3.13999 0.6522,-3.85613 0.9327,-0.47427 12.0458,-4.13696 24.6958,-8.1393 12.65,-4.00234 23.5089,-7.46965 24.1308,-7.70513 0.8624,-0.32649 3.3692,4.36171 3.3692,6.30092 0,0.41949 -49.4711,16.39345 -50.7702,16.39345 -0.5688,0 -1.5038,-1.34721 -2.0778,-2.99381 z m -20.7297,-72.42686 c -7.6909,-3.34329 -13.4651,-11.40479 -15.5928,-21.76941 -2.4838,-12.09954 4.5101,-22.42596 18.8132,-27.77742 17.4319,-6.52213 35.1822,4.18155 37.0569,22.34589 0.5901,5.71752 -1.0702,12.63186 -3.0272,12.6063 -3.2827,-0.0429 -4.0606,-1.89857 -4.1163,-9.81955 -0.052,-7.39203 -0.2839,-8.25914 -3.1621,-11.82116 -4.6652,-5.77359 -8.6661,-7.72236 -15.8074,-7.6995 -13.7025,0.0439 -25.1487,11.02421 -23.1112,22.1707 1.1236,6.14665 4.9514,11.60459 10.0048,14.26562 4.0331,2.12374 4.5591,2.77618 4.307,5.34219 -0.3459,3.52023 -1.3235,3.91317 -5.3649,2.15634 z m -59.8354,-101.75868 c -0.8728,-1.24611 -1.5869,-2.91523 -1.5869,-3.70915 0,-0.79392 3.6,-10.79899 8,-22.23349 4.4,-11.4345 8,-21.23325 8,-21.77499 0,-2.95942 -3.5963,-1.33337 -17.5734,7.94574 -15.0699,10.00452 -15.487,10.20658 -17.4329,8.44551 -1.0966,-0.99234 -1.9937,-2.31826 -1.9937,-2.94649 0,-0.62824 9.9796,-7.8218 22.1769,-15.9857 l 22.1768,-14.84345 1.8232,2.25147 c 1.0027,1.23831 1.8231,2.81518 1.8231,3.50416 0,0.68898 -3.6439,10.77506 -8.0977,22.41351 -4.4537,11.63846 -7.8457,21.81731 -7.5378,22.61967 0.8049,2.09754 2.3413,1.31484 18.4919,-9.42029 l 14.3564,-9.54256 1.8936,2.33849 c 1.0415,1.28617 1.8832,2.62614 1.8705,2.9777 -0.018,0.50613 -28.0501,19.47916 -42.0076,28.43238 -2.7416,1.75861 -2.826,1.7495 -4.3824,-0.47251 z M 1608.907,519.02866 c -5.7239,-6.3716 -10.5428,-11.95412 -10.7089,-12.4056 -0.3493,-0.94997 38.1478,-36.00968 39.5403,-36.00968 0.5102,0 5.7853,5.44248 11.7224,12.09441 l 10.7948,12.0944 -2.0907,2.09071 -2.0907,2.09072 -6.2492,-6.81994 c -3.4371,-3.75096 -7.0865,-7.88427 -8.1097,-9.18512 -1.0233,-1.30085 -2.5435,-2.36518 -3.3784,-2.36518 -1.8873,0 -12.3369,8.81615 -12.3369,10.40844 0,0.64101 3.375,4.95722 7.5,9.59156 4.125,4.63434 7.5,8.89696 7.5,9.47249 0,0.57553 -0.8762,1.59358 -1.947,2.26234 -1.7474,1.09128 -2.738,0.34703 -9.6622,-7.25945 -4.2434,-4.66146 -8.3492,-8.47538 -9.124,-8.47538 -1.9246,0 -12.2385,9.1631 -12.2542,10.88695 -0.01,0.76282 3.0249,4.73585 6.7374,8.82896 9.3577,10.31705 9.7688,10.95408 8.2497,12.78441 -0.6845,0.82482 -1.7939,1.49968 -2.4652,1.49968 -0.6713,0 -5.9037,-5.21312 -11.6275,-11.58472 z m -64.7882,-64.77212 c -0.6473,-0.77996 -0.8588,-2.69321 -0.4974,-4.5 0.5833,-2.91662 0.4297,-3.14316 -2.1304,-3.14316 -5.0336,0 -10.5547,-2.30392 -15.092,-6.2978 -12.3678,-10.88656 -11.8046,-26.56609 1.3978,-38.9154 6.3768,-5.96476 11.1665,-8.0309 18.7032,-8.06813 13.065,-0.0645 26.0743,9.88294 28.025,21.42924 0.7977,4.72157 -0.031,5.89353 -3.6624,5.18011 -2.1229,-0.41705 -2.7521,-1.23106 -3.2256,-4.17307 -0.7636,-4.74516 -5.9201,-10.9248 -11.0663,-13.26214 -8.7527,-3.9754 -17.8681,-1.7335 -24.9861,6.14521 -9.4331,10.4413 -8.565,22.21338 2.1386,29.0014 6.3121,4.00299 10.2731,4.61466 14.9833,2.31371 5.325,-2.60127 5.4335,-5.28216 0.376,-9.28781 -3.5389,-2.80286 -3.8777,-3.42035 -2.8125,-5.12603 0.6661,-1.06661 1.6153,-1.93929 2.1092,-1.93929 1.2338,0 14.6208,11.02878 14.6208,12.04524 0,1.17525 -15.9258,19.95476 -16.9225,19.95476 -0.4579,0 -1.3393,-0.61058 -1.9587,-1.35684 z m -92.8895,-69.87288 c -2.1034,-1.01374 -2.2507,-1.65003 -2,-8.63795 l 0.2707,-7.54359 -10,-6.22749 c -5.5,-3.42512 -10.7228,-6.25759 -11.6062,-6.29437 -0.8834,-0.0368 -3.6689,1.50812 -6.19,3.43312 -5.0692,3.87062 -6.2861,4.13027 -9.1629,1.95506 -1.9454,-1.47101 -1.9454,-1.49406 0,-3.31134 1.995,-1.86352 39.1581,-28.73336 43.1474,-31.19656 1.8408,-1.13661 2.5951,-1.13347 4.75,0.0198 1.5032,0.80447 2.5617,2.24062 2.5617,3.47553 0,1.1575 -1.8,13.89696 -4,28.30992 -2.2,14.41295 -4,26.43986 -4,26.72647 0,0.75795 -1.1929,0.53378 -3.7707,-0.70861 z m 1.2365,-26.02028 c 1.6764,-7.48615 3.5103,-20.9797 2.97,-21.85387 -0.9357,-1.51395 -2.8441,-0.5138 -12.0992,6.34093 -4.7685,3.53174 -8.3366,6.90336 -8.3366,7.87751 0,2.05507 11.5253,9.74388 14.7309,9.82735 1.5233,0.0397 2.3908,-0.65563 2.7349,-2.19192 z m -836.16433,24.65827 c -5.20887,-1.91136 -10.96303,-7.56028 -14.83908,-14.56769 -2.57924,-4.66295 -2.9546,-6.35565 -2.95823,-13.34058 -0.005,-9.18456 1.52442,-13.1654 7.31217,-19.03524 5.06711,-5.13899 11.39437,-7.85444 18.40034,-7.89683 6.73292,-0.0408 8.64217,1.25172 7.04082,4.76628 -0.98711,2.16647 -1.55646,2.34348 -6.12566,1.90444 -4.19257,-0.40286 -5.80377,-0.0349 -9.60701,2.19393 -8.57431,5.02488 -11.90051,13.32338 -9.14269,22.80996 3.0396,10.45586 11.12816,17.75746 19.67135,17.75746 7.29744,0 17.17513,-7.89307 18.56322,-14.83351 0.53115,-2.65574 1.08751,-3.16649 3.44928,-3.16649 3.71193,0 4.24746,1.12226 2.90845,6.09495 -1.41194,5.24354 -8.30541,12.71532 -14.67008,15.90079 -5.91072,2.95828 -14.19593,3.54335 -20.00288,1.41253 z m 89.87726,-69.65827 c -5.53496,-12.7875 -10.33186,-23.95735 -10.65978,-24.82188 -0.54417,-1.43465 2.88286,-3.92812 5.39883,-3.92812 0.45302,0 2.54369,3.9375 4.64592,8.75 4.39318,10.05698 5.14768,11.25 7.11486,11.25 2.00182,0 22.51391,-8.93193 24.22149,-10.54718 1.19275,-1.12826 0.78558,-2.75107 -2.75,-10.96034 C 731.86752,277.80605 730,273.10674 730,272.66294 c 0,-0.88164 5.8481,-3.55799 6.41143,-2.93416 C 737.25627,270.66437 757,317.07 757,318.12012 c 0,1.36299 -4.9602,3.86031 -5.87923,2.96002 -0.34142,-0.33446 -2.43632,-4.69958 -4.65533,-9.70025 -2.219,-5.00067 -4.72042,-9.52477 -5.5587,-10.05354 C 738.55003,299.83977 715,310.29559 715,312.8285 c 0,1.03777 1.82924,6.18467 4.06498,11.43755 2.23574,5.25289 3.92324,9.66899 3.75,9.81356 -0.94917,0.79211 -4.81781,2.53377 -5.6281,2.53377 -0.51952,0 -5.4732,-10.4625 -11.00815,-23.25 z m 550.20397,-16.69893 c -13.9534,-3.33111 -21.0238,-12.82707 -18.5438,-24.90551 0.6046,-2.94493 2.9867,-11.83243 5.2935,-19.75 3.6731,-12.60737 4.4533,-14.39366 6.2809,-14.38025 5.2862,0.0388 5.2932,0.79184 0.1728,18.54984 -5.7503,19.94229 -5.8799,24.99613 -0.7584,29.57218 6.8359,6.10792 16.2272,6.20483 21.8663,0.22565 2.4991,-2.64982 4.1154,-6.22349 6.8589,-15.16488 1.9741,-6.43395 4.3528,-14.1731 5.2858,-17.1981 1.5048,-4.87855 1.9746,-5.4685 4.1577,-5.22126 1.3536,0.15331 2.8494,0.6671 3.3241,1.14176 1.0144,1.01436 -6.6345,28.71315 -9.5489,34.5795 -3.0972,6.23433 -7.6437,10.38454 -13.1758,12.0274 -5.377,1.59679 -6.4986,1.64917 -11.2131,0.52367 z M 819.99466,269.09468 c -4.00983,-14.03528 -7.0787,-25.7306 -6.81971,-25.98958 0.25899,-0.25899 1.86581,-0.74987 3.57071,-1.09085 2.8593,-0.57186 3.17264,-0.35928 4.03813,2.73958 0.51606,1.84775 3.79523,13.39964 7.28706,25.67086 6.75072,23.7239 6.77314,24.13377 1.32177,24.17338 -1.89993,0.0138 -2.82501,-2.4966 -9.39796,-25.50339 z m 86.52106,6.37477 c -1.22239,-3.29609 -8.27946,-51.4325 -7.63842,-52.10184 1.19322,-1.2459 21.75572,-3.77459 25.30403,-3.11178 14.18993,2.65061 17.62384,19.69911 5.40957,26.85715 -2.525,1.47974 -4.5909,3.22427 -4.5909,3.87673 0,1.85325 11.16435,12.3877 14.42372,13.60991 1.60805,0.603 4.16426,0.82389 5.68047,0.49088 2.11979,-0.46559 3.00467,-0.14222 3.82979,1.39953 2.34247,4.37694 -7.47909,6.85664 -14.3131,3.61369 -1.74975,-0.83032 -6.26472,-4.91406 -10.03326,-9.07499 -7.32357,-8.08611 -11.04488,-10.39814 -13.20865,-8.20645 -1.03309,1.04643 -0.97284,3.23771 0.3179,11.56306 0.8759,5.64957 1.41401,10.4505 1.19579,10.66871 -0.21822,0.21822 -1.62914,0.70607 -3.13539,1.08412 -1.89286,0.47507 -2.89395,0.26855 -3.24155,-0.66872 z m 17.59113,-31.92219 c 6.04577,-3.06486 7.34987,-9.91978 2.8135,-14.789 -2.49525,-2.67833 -7.42675,-3.53993 -14.06937,-2.45811 l -5.35098,0.87146 0.24067,7.7692 c 0.3378,10.9044 1.09649,12.01778 7.58888,11.13664 2.84375,-0.38595 6.79353,-1.52454 8.7773,-2.53019 z m 219.07365,28.0212 c -1.5674,-0.63662 -2.1514,-1.51149 -1.8012,-2.69855 0.2849,-0.96609 1.0443,-6.25653 1.6874,-11.75653 l 1.1692,-10 -7.1179,-15.33246 c -3.9149,-8.43285 -7.118,-15.52035 -7.118,-15.75 0,-1.03873 5.9977,-0.27701 7.1875,0.91284 0.7317,0.73171 3.5368,6.15345 6.2335,12.04831 3.6807,8.04594 5.3216,10.64357 6.5817,10.41963 0.9232,-0.16408 5.1353,-4.46082 9.3602,-9.54832 6.4769,-7.79924 8.1395,-9.25 10.6004,-9.25 1.6053,0 3.1382,0.35528 3.4066,0.78951 0.2684,0.43423 -1.9846,3.69673 -5.0065,7.25 -3.022,3.55327 -7.9685,9.47045 -10.9923,13.14928 l -5.4979,6.68879 -1.6866,11.80215 c -1.7863,12.49979 -2.2306,13.21485 -7.0061,11.27535 z m -133.5435,-6.73345 c -0.4273,-0.69134 18.245,-46.39561 21.2443,-51.99993 0.8507,-1.58938 2.1054,-2.2217 4.4088,-2.2217 h 3.2197 l 9.7092,23.25 c 5.3401,12.7875 10.4065,24.9375 11.2586,27 l 1.5492,3.75 h -3.5552 c -3.4099,0 -3.6745,-0.26572 -6.4716,-6.5 l -2.9164,-6.5 h -12.3506 c -8.3884,0 -12.8473,0.40102 -13.8986,1.25 -0.8513,0.6875 -2.3274,3.275 -3.2802,5.75 -0.9529,2.475 -2.1974,5.0625 -2.7658,5.75 -1.1383,1.377 -5.3904,1.70301 -6.1514,0.47163 z m 34.9626,-20.62056 c 0.5833,-1.52003 -7.2568,-21.27116 -8.8292,-22.24296 -0.5293,-0.32712 -1.5299,0.021 -2.2235,0.77357 -1.9658,2.13284 -8.7156,19.98628 -8.1316,21.50831 0.7599,1.98007 18.4233,1.94424 19.1843,-0.0389 z m -14.0369,1317.96075 c 107.8772,-12.9827 195.1622,-50.2166 272.0764,-116.0618 15.937,-13.6434 37.5727,-35.2012 51.1931,-51.0087 14.0619,-16.32 31.1678,-39.1055 31.1678,-41.5164 0,-1.9584 -1.3568,-1.9749 -162.8395,-1.9749 H 1059.321 l -1.1548,2.5345 C 1055.0656,1360.953 977,1562.8517 977,1564.0656 c 0,0.7706 0.74841,1.5466 1.66314,1.7245 3.75899,0.7307 32.32066,-1.2586 51.89956,-3.6149 z m 368.9502,-247.5827 c 0.5984,-0.9681 -95.9023,-286.7947 -110.6983,-327.87873 -14.1187,-39.2034 -26.5942,-70.13081 -37.8675,-93.87522 -4.5942,-9.67669 -6.2645,-12.31069 -7.6388,-12.04604 -1.6511,0.31798 -28.6165,68.73153 -154.3435,391.58259 -8.8376,22.6939 -15.7935,41.7064 -15.4576,42.25 0.8606,1.3925 325.145,1.3601 326.0057,-0.033 z"
         id="path2" />
    </g>
  </g>
</svg>
