<?xml version="1.0" encoding="UTF-8" standalone="no"?>
<!-- Created with Inkscape (http://www.inkscape.org/) -->

<svg
   width="2048mm"
   height="2048mm"
   viewBox="0 0 2048.0001 2047.9999"
   version="1.1"
   id="svg1"
   inkscape:version="1.4.2 (f4327f4, 2025-05-13)"
   sodipodi:docname="bimi - Copy.svg"
   inkscape:export-filename="bimi.png"
   inkscape:export-xdpi="96"
   inkscape:export-ydpi="96"
   xmlns:inkscape="http://www.inkscape.org/namespaces/inkscape"
   xmlns:sodipodi="http://sodipodi.sourceforge.net/DTD/sodipodi-0.dtd"
   xmlns="http://www.w3.org/2000/svg"
   xmlns:svg="http://www.w3.org/2000/svg">
  <sodipodi:namedview
     id="namedview1"
     pagecolor="#ffffff"
     bordercolor="#000000"
     borderopacity="0.25"
     inkscape:showpageshadow="2"
     inkscape:pageopacity="0.0"
     inkscape:pagecheckerboard="0"
     inkscape:deskcolor="#d1d1d1"
     inkscape:document-units="mm"
     inkscape:zoom="0.063544005"
     inkscape:cx="2486.4659"
     inkscape:cy="3312.665"
     inkscape:window-width="1920"
     inkscape:window-height="1009"
     inkscape:window-x="-8"
     inkscape:window-y="-8"
     inkscape:window-maximized="1"
     inkscape:current-layer="layer1" />
  <defs
     id="defs1">
    <rect
       x="1432.0784"
       y="1825.5066"
       width="3336.2707"
       height="4909.9832"
       id="rect2" />
  </defs>
  <g
     inkscape:label="Layer 1"
     inkscape:groupmode="layer"
     id="layer1"
     transform="translate(-1.0409453,324.77493)">
    <path
       id="rect1"
       style="fill:#24221c;stroke-width:0.264583"
       d="M 1.0409453,-324.77493 H 2049.0409 V 1723.2251 H 1.0409453 Z" />
    <path
       id="path1"
       style="fill:#e1e1e1;stroke-width:1.62718"
       d="m 1954.0409,699.2251 a 929,929 0 0 1 -929,929 929,929 0 0 1 -929.000006,-929 929,929 0 0 1 929.000006,-929 929,929 0 0 1 929,929 z" />
    <path
       d="m 1535.1903,704.6802 q 0,276.5932 -149.5532,432.5789 -147.9452,154.3776 -419.71414,154.3776 -183.3234,0 -331.2686,-77.1888 -146.3371,-77.1888 -228.35019,-210.6611 -80.405,-133.4723 -80.405,-297.4985 0,-165.6343 80.405,-299.1066 80.40499,-133.47229 221.91779,-209.05299 141.5128,-77.1888 315.1876,-77.1888 109.35084,0 221.91784,30.5539 114.1751,28.9458 189.7558,78.7969 l 32.162,226.74209 h -14.4729 q -33.7701,-135.08039 -155.9857,-210.66109 -122.2156,-77.1888 -271.76894,-77.1888 -213.8773,0 -356.9982,152.7695 -141.51279,151.16139 -141.51279,381.11969 0,229.9583 146.33709,385.944 147.9452,154.3776 385.944,154.3776 237.99884,0 387.55214,-154.3776 151.1613,-154.3776 151.1613,-422.9303 h 16.081 q 1.6081,19.2972 1.6081,38.5944 z"
       id="text2"
       style="font-size:1608.1px;font-family:'Cinzel Decorative';-inkscape-font-specification:'Cinzel Decorative, Normal';stroke-width:0.418194"
       aria-label="C" />
    <path
       d="m 968.41897,461.72366 q 78.14303,-32.4594 150.27503,-32.4594 60.11,0 123.8266,44.4814 34.8638,24.044 78.143,93.7716 28.8528,48.088 73.3342,174.31899 l 146.6683,415.96115 q 50.4924,139.4552 102.187,221.2048 52.8968,82.9518 96.176,123.8266 43.2792,42.077 90.165,58.9078 46.8858,16.8308 76.9408,16.8308 31.2572,0 55.3012,-4.8088 l 1.2022,12.022 q -57.7056,19.2352 -113.0068,19.2352 -55.3012,0 -110.6024,-28.8528 -55.3012,-27.6506 -103.3892,-78.143 -103.3892,-104.5914 -175.5211,-318.583 l -46.8858,-137.0508 h -329.4028 l -82.9518,213.9916 q -6.01103,14.4264 -6.01103,28.8528 0,14.4264 12.02203,31.2572 13.2242,15.6286 39.6726,15.6286 h 9.6176 v 12.022 H 814.53738 v -12.022 h 10.8198 q 28.8528,0 56.5034,-16.8308 27.65059,-18.033 45.68359,-52.8968 L 1225.6898,548.28206 q -64.9188,-92.5694 -161.0948,-92.5694 -43.2792,0 -92.56943,18.033 z m 128.63543,544.59654 h 304.1566 l -94.9738,-280.11255 q -27.6506,-80.54739 -50.4924,-126.23099 z"
       id="text3"
       style="font-size:1202.2px;font-family:'Cinzel Decorative';-inkscape-font-specification:'Cinzel Decorative, Normal';stroke-width:0.312637"
       aria-label="A" />
    <path
       d="m 801.74712,-22.728896 c -0.99562,5.142781 -3.3004,9.640477 -6.91434,13.4930879 -3.61394,3.8526105 -8.17181,6.7611584 -13.6736,8.72564367 -6.51843,2.32748803 -12.55835,3.06815813 -18.11975,2.22201043 -5.56139,-0.84614772 -10.43071,-3.1530897 -14.60794,-6.9208258 -4.13878,-3.8488915 -7.37191,-9.0325532 -9.6994,-15.5509852 -2.4129,-6.757641 -3.15141,-13.169174 -2.21553,-19.234598 0.93589,-6.065424 3.34324,-11.408864 7.22207,-16.030321 3.87883,-4.621457 9.04755,-8.085252 15.50618,-10.391387 5.5018,-1.964485 10.56995,-2.594166 15.20444,-1.889043 4.6943,0.68377 9.11513,2.678862 13.2625,5.985277 l -6.66419,9.661596 c -2.68231,-2.413573 -5.58468,-3.838316 -8.70709,-4.274229 -3.12241,-0.435913 -6.26838,-0.08801 -9.43789,1.043703 -4.06655,1.452011 -7.30235,3.719932 -9.70741,6.803764 -2.40505,3.083831 -3.8747,6.710206 -4.40893,10.879125 -0.49578,4.087764 0.0784,8.434028 1.72261,13.038792 2.37019,6.638037 5.9216,11.202358 10.65421,13.692963 4.79242,2.4692527 10.26844,2.6041943 16.42806,0.404825 3.40872,-1.217127 6.27074,-3.115592 8.58606,-5.695397 2.31532,-2.579804 3.80416,-5.774759 4.46651,-9.584865 z m 32.81339,4.409396 -14.83976,-65.979241 12.08071,-2.71714 6.14491,27.320982 31.22398,-7.022761 -6.14491,-27.320981 12.17363,-2.738041 14.83976,65.979241 -12.17363,2.73804 -6.31212,-28.064409 -31.22398,7.022761 6.31212,28.064409 z m 92.08181,-17.780797 -8.41004,-67.102533 12.28638,-1.53987 8.41004,67.102537 z m 102.14958,-18.948339 3.1973,9.512735 c -1.2354,0.996989 -2.7642,1.782012 -4.5865,2.355071 -1.8201,0.636519 -3.7455,0.990849 -5.7762,1.062992 -7.1075,0.252498 -12.8036,-2.690379 -17.0882,-8.828631 l -10.33888,-14.6917 c -1.07172,-1.550428 -2.15826,-2.623779 -3.25963,-3.220053 -1.10136,-0.596274 -2.28664,-0.871867 -3.55584,-0.826778 l -0.47595,0.01691 0.99083,27.890655 -12.08912,0.429473 -2.40099,-67.584868 21.03698,-0.74735 c 8.5671,-0.30435 15.1031,1.24258 19.6081,4.64078 4.5685,3.39595 6.9632,8.203457 7.1841,14.422534 0.133,3.744138 -0.577,7.009904 -2.13,9.797299 -1.5553,2.723934 -3.7326,4.929876 -6.5319,6.617825 -2.7993,1.687949 -5.9997,2.818286 -9.6012,3.391009 1.9399,0.947726 3.7459,2.599148 5.4181,4.954266 l 5.6113,7.711392 c 1.4683,1.981121 2.8188,3.331024 4.0516,4.049709 1.2962,0.716431 2.8962,1.040829 4.8,0.973196 2.2211,-0.07891 4.1998,-0.721061 5.9361,-1.926466 z m -34.84445,-44.510972 -8.09115,0.287442 0.70677,19.8947 7.52001,-0.267152 c 5.20375,-0.184865 9.01492,-1.114509 11.43342,-2.788932 2.4186,-1.674423 3.5659,-4.256783 3.4419,-7.747081 -0.2345,-6.599839 -5.2381,-9.726165 -15.01095,-9.378977 z m 56.84905,56.611536 34.18,-65.101078 10.4439,0.83845 22.2171,69.628691 -12.5327,-1.006136 -4.8416,-15.868838 -29.4329,-2.362897 -7.5011,14.877945 z m 25.1372,-23.877761 21.1726,1.699761 -8.3173,-27.327971 z m 133.8963,-22.625697 -30.3502,32.109069 -5.8145,29.726186 -12.2456,-2.395256 5.7595,-29.44575 -16.6147,-41.586559 13.7414,2.687808 11.6313,29.353429 21.1797,-22.935605 z m 77.7,22.758947 11.702,3.746837 -10.8884,34.318742 c -1.9921,6.429783 -4.8221,11.624444 -8.4902,15.583983 -3.5883,3.918427 -7.8355,6.4590323 -12.7418,7.621816 -4.8458,1.1821471 -10.1413,0.8534543 -15.8865,-0.9860784 -9.1923,-2.9432524 -15.3809,-7.4584486 -18.5659,-13.5455876 -3.1051,-6.128252 -3.1378,-13.939717 -0.098,-23.434394 l 11.8795,-37.101814 11.7927,3.775883 -11.589,36.194679 c -2.0719,6.470895 -2.2724,11.574074 -0.6014,15.309536 1.7315,3.754825 5.1977,6.464869 10.3986,8.13013 5.2614,1.684625 9.7345,1.249934 13.4193,-1.304072 3.7453,-2.534643 6.7301,-7.379709 8.9546,-14.5352 z m 101.6261,118.689312 60.2856,-42.0959664 8.889,5.5465604 -12.2852,72.047393 -10.6667,-6.655873 2.9968,-16.318108 -25.0507,-15.631217 -13.502,9.763083 z m 33.3013,-9.646318 18.0203,11.244391 5.1792,-28.092204 z m 95.3104,55.945306 20.8604,16.921253 -22.2016,27.37007 -7.6192,-6.18046 3.7466,-6.28201 c -3.5662,0.86841 -7.0808,0.71569 -10.5439,-0.45816 -3.4231,-1.22317 -6.7374,-3.13485 -9.9429,-5.73504 -5.0302,-4.08031 -8.5546,-8.6562 -10.5731,-13.72767 -2.0185,-5.07147 -2.4786,-10.350564 -1.3803,-15.837291 1.1383,-5.536041 3.8876,-10.991753 8.2479,-16.367136 4.5203,-5.572645 9.6149,-9.534805 15.2837,-11.88648 5.7181,-2.311673 11.6331,-2.950953 17.745,-1.917842 6.1613,1.073115 12.0775,3.909843 17.7488,8.510184 4.6357,3.760279 7.9055,7.843539 9.8096,12.249778 1.904,4.406239 2.5408,9.215465 1.9105,14.427676 l -11.7776,-0.600405 c 0.5886,-3.447221 0.2087,-6.658028 -1.1398,-9.63242 -1.3484,-2.974391 -3.3788,-5.561669 -6.0911,-7.761832 -3.6494,-2.96022 -7.4903,-4.726707 -11.5227,-5.299461 -3.9431,-0.582066 -7.8145,-0.043 -11.6142,1.61721 -3.7503,1.700209 -7.1655,4.448958 -10.2458,8.246247 -4.4803,5.523329 -6.5798,10.933856 -6.2983,16.231582 0.3708,5.28841 2.9973,9.91276 7.8796,13.87305 2.3178,1.88014 4.8524,3.24109 7.6037,4.08286 2.7513,0.84176 5.4281,0.96897 8.0304,0.38164 2.6916,-0.59664 5.0175,-2.10319 6.9776,-4.51965 l 0.36,-0.44384 -11.6138,-9.4207 z m 95.2507,59.688913 -21.9609,-22.48822 -12.4707,12.17834 20.8961,21.39787 -7.6323,7.45341 -20.8962,-21.39788 -13.0159,12.71072 22.7595,23.30597 -8.2313,6.84009 -30.6122,-31.34721 48.3837,-47.24927 30.4126,31.14277 z m 62.1273,58.65437 7.2876,9.41543 -53.4796,41.39335 -6.6463,-8.58687 16.705,-55.44791 -37.285,28.85875 -7.2876,-9.41543 53.4796,-41.39335 6.6463,8.58687 -16.705,55.4479 z m 15.1607,124.1177 c -5.2383,0.0159 -10.0963,-1.3772 -14.5741,-4.1794 -4.4778,-2.8022 -8.2115,-6.71282 -11.2012,-11.73187 -3.5421,-5.94649 -5.4349,-11.72979 -5.6783,-17.34992 -0.2434,-5.62013 1.0801,-10.84321 3.9706,-15.66923 2.9775,-4.80396 7.4394,-8.97699 13.3859,-12.5191 6.1647,-3.67209 12.3131,-5.63446 18.4451,-5.88713 6.132,-0.25267 11.8397,1.07784 17.123,3.99152 5.2833,2.91367 9.6798,7.31648 13.1894,13.20841 2.9897,5.01905 4.5859,9.87029 4.7887,14.55373 0.2354,4.738 -0.8687,9.46083 -3.3123,14.16848 l -10.7664,-4.67362 c 1.8504,-3.0978 2.688,-6.22062 2.5129,-9.36845 -0.1751,-3.14783 -1.1237,-6.16745 -2.846,-9.05886 -2.2098,-3.70973 -5.0598,-6.44684 -8.5499,-8.21132 -3.4901,-1.76447 -7.3319,-2.50639 -11.5256,-2.22575 -4.1065,0.30269 -8.2602,1.70515 -12.4609,4.20737 -6.0556,3.6071 -9.8485,7.97285 -11.3786,13.09725 -1.4976,5.17896 -0.5728,10.57802 2.7743,16.19717 1.8523,3.10963 4.2675,5.55131 7.2458,7.32504 2.9783,1.77373 6.4005,2.61776 10.2668,2.5321 z m 1.5376,33.26155 61.029,-29.13657 5.3349,11.17433 -61.029,29.13657 z m 89.0484,65.69304 -11.0797,-29.415 -16.3119,6.14419 10.5425,27.98882 -9.9833,3.76038 -10.5425,-27.98882 -17.0251,6.41279 11.4826,30.48464 -10.2854,2.95815 -15.4444,-41.00273 63.2868,-23.83812 15.3437,40.73532 z m -38.8184,72.59196 c -2.0033,-7.68055 -1.8454,-14.12011 0.4737,-19.31868 2.3191,-5.19857 6.7164,-8.9705 13.1921,-11.31578 l 4.5918,10.81161 c -7.5764,3.15736 -10.2347,9.06787 -7.975,17.73152 0.9776,3.74811 2.4762,6.4744 4.4957,8.17888 2.081,1.68845 4.4733,2.1801 7.1768,1.47494 2.4578,-0.64105 4.0287,-2.16639 4.7127,-4.57602 0.7455,-2.42566 1.0702,-6.08689 0.9742,-10.98369 -0.077,-4.57355 0.1901,-8.58073 0.802,-12.02156 0.6733,-3.45685 2.0225,-6.33529 4.0476,-8.63534 2.0411,-2.2386 5.0893,-3.88677 9.1446,-4.9445 3.871,-1.00965 7.5683,-0.92401 11.0919,0.25692 3.5397,1.24238 6.6265,3.39037 9.2604,6.44396 2.6339,3.05359 4.5519,6.88455 5.7538,11.49288 1.5866,6.08299 1.2872,11.47667 -0.8982,16.18103 -2.1855,4.70436 -5.9858,8.12368 -11.4009,10.25795 l -4.4917,-10.05024 c 6.0537,-2.95706 8.2231,-7.72286 6.5083,-14.29741 -0.8334,-3.19511 -2.344,-5.59014 -4.5319,-7.18509 -2.1718,-1.53351 -4.6095,-1.94769 -7.313,-1.24254 -2.7036,0.70515 -4.5363,2.23316 -5.4981,4.58401 -0.9004,2.33482 -1.2866,6.01208 -1.1585,11.03177 0.1227,4.49608 -0.091,8.45652 -0.6417,11.88131 -0.489,3.40877 -1.6846,6.24715 -3.5868,8.51515 -1.8861,2.32943 -4.8569,4.02302 -8.9122,5.08075 -3.8095,0.99363 -7.4614,0.83052 -10.9557,-0.48933 -3.4167,-1.27443 -6.4354,-3.53863 -9.0559,-6.79258 -2.6046,-3.19251 -4.5399,-7.21581 -5.806,-12.06992 z"
       id="text4"
       style="font-weight:600;font-size:95.25px;font-family:Livvic;-inkscape-font-specification:'Livvic, Semi-Bold';fill:#241c1c;stroke-width:0.264583"
       aria-label="C H I R A Y U     A G E N C I E S"
       sodipodi:nodetypes="cssscsssscccssscscsscccccccccccccccccccccccsccssccccscscsccccscsccssssccccccccccccccccccccccccccccsccccccsccccccccccccccccccccccsscsccssccssccscsscsccccccccccccccccccccccccccccssscsssscccssscscssccccccccccccccccccccssccscsccccscsssccscsccccsccs" />
  </g>
</svg>
